<svg width="273" height="40" viewBox="0 0 273 40" fill="none" xmlns="http://www.w3.org/2000/svg">
    <rect x="0.5" y="0.5" width="166" height="39" rx="7.5" fill="url(#paint0_linear_0_1)"/>
    <rect x="0.5" y="0.5" width="166" height="39" rx="7.5" stroke="#2A9C3C"/>
    <path d="M24.7614 14.3636H26.5227V22.017C26.5227 22.8314 26.3314 23.553 25.9489 24.1818C25.5663 24.8068 25.0284 25.2992 24.3352 25.6591C23.642 26.0152 22.8295 26.1932 21.8977 26.1932C20.9697 26.1932 20.1591 26.0152 19.4659 25.6591C18.7727 25.2992 18.2348 24.8068 17.8523 24.1818C17.4697 23.553 17.2784 22.8314 17.2784 22.017V14.3636H19.0341V21.875C19.0341 22.4015 19.1496 22.8693 19.3807 23.2784C19.6155 23.6875 19.947 24.0095 20.375 24.2443C20.803 24.4754 21.3106 24.5909 21.8977 24.5909C22.4886 24.5909 22.9981 24.4754 23.4261 24.2443C23.858 24.0095 24.1875 23.6875 24.4148 23.2784C24.6458 22.8693 24.7614 22.4015 24.7614 21.875V14.3636ZM35.4787 19.4034L33.9389 19.6761C33.8745 19.4792 33.7723 19.2917 33.6321 19.1136C33.4957 18.9356 33.3101 18.7898 33.0753 18.6761C32.8404 18.5625 32.5469 18.5057 32.1946 18.5057C31.7135 18.5057 31.312 18.6136 30.9901 18.8295C30.6681 19.0417 30.5071 19.3163 30.5071 19.6534C30.5071 19.9451 30.6151 20.1799 30.831 20.358C31.0469 20.536 31.3954 20.6818 31.8764 20.7955L33.2628 21.1136C34.0658 21.2992 34.6643 21.5852 35.0582 21.9716C35.4522 22.358 35.6491 22.8598 35.6491 23.4773C35.6491 24 35.4976 24.4659 35.1946 24.875C34.8954 25.2803 34.4768 25.5985 33.9389 25.8295C33.4048 26.0606 32.7855 26.1761 32.081 26.1761C31.1037 26.1761 30.3063 25.9678 29.6889 25.5511C29.0715 25.1307 28.6927 24.5341 28.5526 23.7614L30.1946 23.5114C30.2969 23.9394 30.5071 24.2633 30.8253 24.483C31.1435 24.6989 31.5582 24.8068 32.0696 24.8068C32.6264 24.8068 33.0715 24.6913 33.4048 24.4602C33.7382 24.2254 33.9048 23.9394 33.9048 23.6023C33.9048 23.3295 33.8026 23.1004 33.598 22.9148C33.3973 22.7292 33.0885 22.589 32.6719 22.4943L31.1946 22.1705C30.3802 21.9848 29.7779 21.6894 29.3878 21.2841C29.0014 20.8788 28.8082 20.3655 28.8082 19.7443C28.8082 19.2292 28.9522 18.7784 29.2401 18.392C29.5279 18.0057 29.9257 17.7045 30.4332 17.4886C30.9408 17.2689 31.5223 17.1591 32.1776 17.1591C33.1207 17.1591 33.8632 17.3636 34.4048 17.7727C34.9465 18.178 35.3045 18.7216 35.4787 19.4034ZM41.2784 26.1761C40.4186 26.1761 39.678 25.9924 39.0568 25.625C38.4394 25.2538 37.9621 24.733 37.625 24.0625C37.2917 23.3883 37.125 22.5985 37.125 21.6932C37.125 20.7992 37.2917 20.0114 37.625 19.3295C37.9621 18.6477 38.4318 18.1155 39.0341 17.733C39.6402 17.3504 40.3485 17.1591 41.1591 17.1591C41.6515 17.1591 42.1288 17.2405 42.5909 17.4034C43.053 17.5663 43.4678 17.822 43.8352 18.1705C44.2027 18.5189 44.4924 18.9716 44.7045 19.5284C44.9167 20.0814 45.0227 20.7538 45.0227 21.5455V22.1477H38.0852V20.875H43.358C43.358 20.428 43.267 20.0322 43.0852 19.6875C42.9034 19.339 42.6477 19.0644 42.3182 18.8636C41.9924 18.6629 41.6098 18.5625 41.1705 18.5625C40.6932 18.5625 40.2765 18.6799 39.9205 18.9148C39.5682 19.1458 39.2955 19.4489 39.1023 19.8239C38.9129 20.1951 38.8182 20.5985 38.8182 21.0341V22.0284C38.8182 22.6117 38.9205 23.108 39.125 23.517C39.3333 23.9261 39.6231 24.2386 39.9943 24.4545C40.3655 24.6667 40.7992 24.7727 41.2955 24.7727C41.6174 24.7727 41.911 24.7273 42.1761 24.6364C42.4413 24.5417 42.6705 24.4015 42.8636 24.2159C43.0568 24.0303 43.2045 23.8011 43.3068 23.5284L44.9148 23.8182C44.786 24.2917 44.5549 24.7064 44.2216 25.0625C43.892 25.4148 43.4773 25.6894 42.9773 25.8864C42.4811 26.0795 41.9148 26.1761 41.2784 26.1761ZM55.2159 17.2727V18.6364H50.4489V17.2727H55.2159ZM51.7273 15.1818H53.4261V23.4375C53.4261 23.767 53.4754 24.0152 53.5739 24.1818C53.6723 24.3447 53.7992 24.4564 53.9545 24.517C54.1136 24.5739 54.286 24.6023 54.4716 24.6023C54.608 24.6023 54.7273 24.5928 54.8295 24.5739C54.9318 24.5549 55.0114 24.5398 55.0682 24.5284L55.375 25.9318C55.2765 25.9697 55.1364 26.0076 54.9545 26.0455C54.7727 26.0871 54.5455 26.1098 54.2727 26.1136C53.8258 26.1212 53.4091 26.0417 53.0227 25.875C52.6364 25.7083 52.3239 25.4508 52.0852 25.1023C51.8466 24.7538 51.7273 24.3163 51.7273 23.7898V15.1818ZM58.9815 20.8182V26H57.2827V14.3636H58.9588V18.6932H59.0668C59.2713 18.2235 59.5838 17.8504 60.0043 17.5739C60.4247 17.2973 60.974 17.1591 61.652 17.1591C62.2505 17.1591 62.7732 17.2822 63.2202 17.5284C63.6709 17.7746 64.0194 18.142 64.2656 18.6307C64.5156 19.1155 64.6406 19.7216 64.6406 20.4489V26H62.9418V20.6534C62.9418 20.0133 62.777 19.517 62.4474 19.1648C62.1179 18.8087 61.6596 18.6307 61.0724 18.6307C60.6709 18.6307 60.3111 18.7159 59.9929 18.8864C59.6785 19.0568 59.4304 19.3068 59.2486 19.6364C59.0705 19.9621 58.9815 20.3561 58.9815 20.8182ZM66.9077 26V17.2727H68.6065V26H66.9077ZM67.7656 15.9261C67.4702 15.9261 67.2164 15.8277 67.0043 15.6307C66.7959 15.4299 66.6918 15.1913 66.6918 14.9148C66.6918 14.6345 66.7959 14.3958 67.0043 14.1989C67.2164 13.9981 67.4702 13.8977 67.7656 13.8977C68.0611 13.8977 68.313 13.9981 68.5213 14.1989C68.7334 14.3958 68.8395 14.6345 68.8395 14.9148C68.8395 15.1913 68.7334 15.4299 68.5213 15.6307C68.313 15.8277 68.0611 15.9261 67.7656 15.9261ZM77.4318 19.4034L75.892 19.6761C75.8277 19.4792 75.7254 19.2917 75.5852 19.1136C75.4489 18.9356 75.2633 18.7898 75.0284 18.6761C74.7936 18.5625 74.5 18.5057 74.1477 18.5057C73.6667 18.5057 73.2652 18.6136 72.9432 18.8295C72.6212 19.0417 72.4602 19.3163 72.4602 19.6534C72.4602 19.9451 72.5682 20.1799 72.7841 20.358C73 20.536 73.3485 20.6818 73.8295 20.7955L75.2159 21.1136C76.0189 21.2992 76.6174 21.5852 77.0114 21.9716C77.4053 22.358 77.6023 22.8598 77.6023 23.4773C77.6023 24 77.4508 24.4659 77.1477 24.875C76.8485 25.2803 76.4299 25.5985 75.892 25.8295C75.358 26.0606 74.7386 26.1761 74.0341 26.1761C73.0568 26.1761 72.2595 25.9678 71.642 25.5511C71.0246 25.1307 70.6458 24.5341 70.5057 23.7614L72.1477 23.5114C72.25 23.9394 72.4602 24.2633 72.7784 24.483C73.0966 24.6989 73.5114 24.8068 74.0227 24.8068C74.5795 24.8068 75.0246 24.6913 75.358 24.4602C75.6913 24.2254 75.858 23.9394 75.858 23.6023C75.858 23.3295 75.7557 23.1004 75.5511 22.9148C75.3504 22.7292 75.0417 22.589 74.625 22.4943L73.1477 22.1705C72.3333 21.9848 71.7311 21.6894 71.3409 21.2841C70.9545 20.8788 70.7614 20.3655 70.7614 19.7443C70.7614 19.2292 70.9053 18.7784 71.1932 18.392C71.4811 18.0057 71.8788 17.7045 72.3864 17.4886C72.8939 17.2689 73.4754 17.1591 74.1307 17.1591C75.0739 17.1591 75.8163 17.3636 76.358 17.7727C76.8996 18.178 77.2576 18.7216 77.4318 19.4034ZM87.7784 17.2727V18.6364H83.0114V17.2727H87.7784ZM84.2898 15.1818H85.9886V23.4375C85.9886 23.767 86.0379 24.0152 86.1364 24.1818C86.2348 24.3447 86.3617 24.4564 86.517 24.517C86.6761 24.5739 86.8485 24.6023 87.0341 24.6023C87.1705 24.6023 87.2898 24.5928 87.392 24.5739C87.4943 24.5549 87.5739 24.5398 87.6307 24.5284L87.9375 25.9318C87.839 25.9697 87.6989 26.0076 87.517 26.0455C87.3352 26.0871 87.108 26.1098 86.8352 26.1136C86.3883 26.1212 85.9716 26.0417 85.5852 25.875C85.1989 25.7083 84.8864 25.4508 84.6477 25.1023C84.4091 24.7538 84.2898 24.3163 84.2898 23.7898V15.1818ZM93.3253 26.1761C92.4654 26.1761 91.7249 25.9924 91.1037 25.625C90.4863 25.2538 90.009 24.733 89.6719 24.0625C89.3385 23.3883 89.1719 22.5985 89.1719 21.6932C89.1719 20.7992 89.3385 20.0114 89.6719 19.3295C90.009 18.6477 90.4787 18.1155 91.081 17.733C91.687 17.3504 92.3954 17.1591 93.206 17.1591C93.6984 17.1591 94.1757 17.2405 94.6378 17.4034C95.0999 17.5663 95.5147 17.822 95.8821 18.1705C96.2495 18.5189 96.5393 18.9716 96.7514 19.5284C96.9635 20.0814 97.0696 20.7538 97.0696 21.5455V22.1477H90.1321V20.875H95.4048C95.4048 20.428 95.3139 20.0322 95.1321 19.6875C94.9503 19.339 94.6946 19.0644 94.3651 18.8636C94.0393 18.6629 93.6567 18.5625 93.2173 18.5625C92.7401 18.5625 92.3234 18.6799 91.9673 18.9148C91.6151 19.1458 91.3423 19.4489 91.1491 19.8239C90.9598 20.1951 90.8651 20.5985 90.8651 21.0341V22.0284C90.8651 22.6117 90.9673 23.108 91.1719 23.517C91.3802 23.9261 91.67 24.2386 92.0412 24.4545C92.4124 24.6667 92.8461 24.7727 93.3423 24.7727C93.6643 24.7727 93.9579 24.7273 94.223 24.6364C94.4882 24.5417 94.7173 24.4015 94.9105 24.2159C95.1037 24.0303 95.2514 23.8011 95.3537 23.5284L96.9616 23.8182C96.8329 24.2917 96.6018 24.7064 96.2685 25.0625C95.9389 25.4148 95.5241 25.6894 95.0241 25.8864C94.5279 26.0795 93.9616 26.1761 93.3253 26.1761ZM98.9545 26V17.2727H100.585V18.6932H100.693C100.875 18.2121 101.172 17.8371 101.585 17.5682C101.998 17.2955 102.492 17.1591 103.068 17.1591C103.652 17.1591 104.14 17.2955 104.534 17.5682C104.932 17.8409 105.225 18.2159 105.415 18.6932H105.506C105.714 18.2273 106.045 17.8561 106.5 17.5795C106.955 17.2992 107.496 17.1591 108.125 17.1591C108.917 17.1591 109.562 17.4072 110.062 17.9034C110.566 18.3996 110.818 19.1477 110.818 20.1477V26H109.119V20.3068C109.119 19.7159 108.958 19.2879 108.636 19.0227C108.314 18.7576 107.93 18.625 107.483 18.625C106.93 18.625 106.5 18.7955 106.193 19.1364C105.886 19.4735 105.733 19.9072 105.733 20.4375V26H104.04V20.1989C104.04 19.7254 103.892 19.3447 103.597 19.0568C103.301 18.7689 102.917 18.625 102.443 18.625C102.121 18.625 101.824 18.7102 101.551 18.8807C101.282 19.0473 101.064 19.2803 100.898 19.5795C100.735 19.8788 100.653 20.2254 100.653 20.6193V26H98.9545ZM113.095 29.2727V17.2727H114.754V18.6875H114.896C114.995 18.5057 115.137 18.2955 115.322 18.0568C115.508 17.8182 115.766 17.6098 116.095 17.4318C116.425 17.25 116.86 17.1591 117.402 17.1591C118.107 17.1591 118.735 17.3371 119.288 17.6932C119.841 18.0492 120.275 18.5625 120.589 19.233C120.908 19.9034 121.067 20.7102 121.067 21.6534C121.067 22.5966 120.91 23.4053 120.595 24.0795C120.281 24.75 119.849 25.267 119.3 25.6307C118.75 25.9905 118.124 26.1705 117.419 26.1705C116.889 26.1705 116.455 26.0814 116.118 25.9034C115.785 25.7254 115.523 25.517 115.334 25.2784C115.144 25.0398 114.999 24.8277 114.896 24.642H114.794V29.2727H113.095ZM114.76 21.6364C114.76 22.25 114.849 22.7879 115.027 23.25C115.205 23.7121 115.463 24.0739 115.8 24.3352C116.137 24.5928 116.55 24.7216 117.038 24.7216C117.546 24.7216 117.97 24.5871 118.311 24.3182C118.652 24.0455 118.91 23.6761 119.084 23.2102C119.262 22.7443 119.351 22.2197 119.351 21.6364C119.351 21.0606 119.264 20.5436 119.089 20.0852C118.919 19.6269 118.661 19.2652 118.317 19C117.976 18.7348 117.55 18.6023 117.038 18.6023C116.546 18.6023 116.129 18.7292 115.788 18.983C115.451 19.2367 115.196 19.5909 115.021 20.0455C114.847 20.5 114.76 21.0303 114.76 21.6364ZM124.669 14.3636V26H122.97V14.3636H124.669ZM129.494 26.1932C128.941 26.1932 128.441 26.0909 127.994 25.8864C127.547 25.678 127.193 25.3769 126.932 24.983C126.674 24.589 126.545 24.1061 126.545 23.5341C126.545 23.0417 126.64 22.6364 126.83 22.3182C127.019 22 127.275 21.7481 127.597 21.5625C127.919 21.3769 128.278 21.2367 128.676 21.142C129.074 21.0473 129.479 20.9754 129.892 20.9261C130.415 20.8655 130.839 20.8163 131.165 20.7784C131.491 20.7367 131.727 20.6705 131.875 20.5795C132.023 20.4886 132.097 20.3409 132.097 20.1364V20.0966C132.097 19.6004 131.956 19.2159 131.676 18.9432C131.4 18.6705 130.987 18.5341 130.438 18.5341C129.866 18.5341 129.415 18.661 129.085 18.9148C128.759 19.1648 128.534 19.4432 128.409 19.75L126.812 19.3864C127.002 18.8561 127.278 18.428 127.642 18.1023C128.009 17.7727 128.432 17.5341 128.909 17.3864C129.386 17.2348 129.888 17.1591 130.415 17.1591C130.763 17.1591 131.133 17.2008 131.523 17.2841C131.917 17.3636 132.284 17.5114 132.625 17.7273C132.97 17.9432 133.252 18.2519 133.472 18.6534C133.691 19.0511 133.801 19.5682 133.801 20.2045V26H132.142V24.8068H132.074C131.964 25.0265 131.799 25.2424 131.58 25.4545C131.36 25.6667 131.078 25.8428 130.733 25.983C130.388 26.1231 129.975 26.1932 129.494 26.1932ZM129.864 24.8295C130.333 24.8295 130.735 24.7367 131.068 24.5511C131.405 24.3655 131.661 24.1231 131.835 23.8239C132.013 23.5208 132.102 23.197 132.102 22.8523V21.7273C132.042 21.7879 131.924 21.8447 131.75 21.8977C131.58 21.947 131.384 21.9905 131.165 22.0284C130.945 22.0625 130.731 22.0947 130.523 22.125C130.314 22.1515 130.14 22.1742 130 22.1932C129.67 22.2348 129.369 22.3049 129.097 22.4034C128.828 22.5019 128.612 22.6439 128.449 22.8295C128.29 23.0114 128.21 23.2538 128.21 23.5568C128.21 23.9773 128.366 24.2955 128.676 24.5114C128.987 24.7235 129.383 24.8295 129.864 24.8295ZM140.138 17.2727V18.6364H135.371V17.2727H140.138ZM136.649 15.1818H138.348V23.4375C138.348 23.767 138.397 24.0152 138.496 24.1818C138.594 24.3447 138.721 24.4564 138.876 24.517C139.036 24.5739 139.208 24.6023 139.393 24.6023C139.53 24.6023 139.649 24.5928 139.751 24.5739C139.854 24.5549 139.933 24.5398 139.99 24.5284L140.297 25.9318C140.198 25.9697 140.058 26.0076 139.876 26.0455C139.695 26.0871 139.467 26.1098 139.195 26.1136C138.748 26.1212 138.331 26.0417 137.945 25.875C137.558 25.7083 137.246 25.4508 137.007 25.1023C136.768 24.7538 136.649 24.3163 136.649 23.7898V15.1818ZM145.685 26.1761C144.825 26.1761 144.084 25.9924 143.463 25.625C142.846 25.2538 142.368 24.733 142.031 24.0625C141.698 23.3883 141.531 22.5985 141.531 21.6932C141.531 20.7992 141.698 20.0114 142.031 19.3295C142.368 18.6477 142.838 18.1155 143.44 17.733C144.046 17.3504 144.755 17.1591 145.565 17.1591C146.058 17.1591 146.535 17.2405 146.997 17.4034C147.459 17.5663 147.874 17.822 148.241 18.1705C148.609 18.5189 148.899 18.9716 149.111 19.5284C149.323 20.0814 149.429 20.7538 149.429 21.5455V22.1477H142.491V20.875H147.764C147.764 20.428 147.673 20.0322 147.491 19.6875C147.31 19.339 147.054 19.0644 146.724 18.8636C146.399 18.6629 146.016 18.5625 145.577 18.5625C145.099 18.5625 144.683 18.6799 144.327 18.9148C143.974 19.1458 143.702 19.4489 143.509 19.8239C143.319 20.1951 143.224 20.5985 143.224 21.0341V22.0284C143.224 22.6117 143.327 23.108 143.531 23.517C143.74 23.9261 144.029 24.2386 144.401 24.4545C144.772 24.6667 145.205 24.7727 145.702 24.7727C146.024 24.7727 146.317 24.7273 146.582 24.6364C146.848 24.5417 147.077 24.4015 147.27 24.2159C147.463 24.0303 147.611 23.8011 147.713 23.5284L149.321 23.8182C149.192 24.2917 148.961 24.7064 148.628 25.0625C148.298 25.4148 147.884 25.6894 147.384 25.8864C146.887 26.0795 146.321 26.1761 145.685 26.1761Z" fill="white"/>
    <rect x="172" width="101" height="40" rx="8" fill="#B9B9B9"/>
    <path d="M196.688 20.6648L189.733 24.5V23.3864L195.438 20.3125L195.386 20.4091V20.1989L195.438 20.2955L189.733 17.2216V16.108L196.688 19.9375V20.6648ZM200.399 19.0227V18.0852H206.871V19.0227H200.399ZM200.399 22.2784V21.3409H206.871V22.2784H200.399ZM218.009 27.4545V12.9091H218.753V27.4545H218.009ZM221.207 17.2727C221.143 16.625 220.857 16.1098 220.349 15.7273C219.842 15.3447 219.204 15.1534 218.435 15.1534C217.893 15.1534 217.416 15.2462 217.003 15.4318C216.594 15.6174 216.272 15.875 216.037 16.2045C215.806 16.5303 215.69 16.9015 215.69 17.3182C215.69 17.625 215.757 17.8939 215.889 18.125C216.022 18.3561 216.2 18.5549 216.423 18.7216C216.651 18.8845 216.901 19.0246 217.173 19.142C217.45 19.2595 217.728 19.358 218.009 19.4375L219.236 19.7898C219.607 19.892 219.978 20.0227 220.349 20.1818C220.721 20.3409 221.06 20.5417 221.366 20.7841C221.677 21.0227 221.925 21.3163 222.111 21.6648C222.3 22.0095 222.395 22.4242 222.395 22.9091C222.395 23.5303 222.234 24.089 221.912 24.5852C221.59 25.0814 221.128 25.4754 220.526 25.767C219.923 26.0549 219.202 26.1989 218.361 26.1989C217.569 26.1989 216.882 26.0682 216.298 25.8068C215.715 25.5417 215.257 25.1761 214.923 24.7102C214.59 24.2443 214.402 23.7045 214.361 23.0909H215.452C215.49 23.5492 215.641 23.9375 215.906 24.2557C216.171 24.5739 216.516 24.8163 216.94 24.983C217.365 25.1458 217.838 25.2273 218.361 25.2273C218.94 25.2273 219.455 25.1307 219.906 24.9375C220.361 24.7405 220.717 24.4678 220.974 24.1193C221.236 23.767 221.366 23.358 221.366 22.892C221.366 22.4981 221.264 22.1686 221.06 21.9034C220.855 21.6345 220.569 21.4091 220.202 21.2273C219.838 21.0455 219.416 20.8845 218.935 20.7443L217.543 20.3352C216.63 20.0625 215.921 19.6856 215.418 19.2045C214.914 18.7235 214.662 18.1098 214.662 17.3636C214.662 16.7386 214.829 16.1894 215.162 15.7159C215.499 15.2386 215.954 14.8674 216.526 14.6023C217.101 14.3333 217.747 14.1989 218.463 14.1989C219.187 14.1989 219.827 14.3314 220.384 14.5966C220.94 14.8617 221.382 15.2273 221.707 15.6932C222.037 16.1553 222.213 16.6818 222.236 17.2727H221.207ZM228.315 26.1591C227.497 26.1591 226.798 25.9242 226.219 25.4545C225.643 24.9811 225.2 24.2973 224.889 23.4034C224.582 22.5095 224.429 21.4356 224.429 20.1818C224.429 18.9318 224.582 17.8617 224.889 16.9716C225.2 16.0777 225.645 15.3939 226.224 14.9205C226.808 14.4432 227.505 14.2045 228.315 14.2045C229.126 14.2045 229.821 14.4432 230.401 14.9205C230.984 15.3939 231.429 16.0777 231.736 16.9716C232.046 17.8617 232.202 18.9318 232.202 20.1818C232.202 21.4356 232.046 22.5095 231.736 23.4034C231.429 24.2973 230.986 24.9811 230.406 25.4545C229.83 25.9242 229.134 26.1591 228.315 26.1591ZM228.315 25.2045C229.213 25.2045 229.914 24.767 230.418 23.892C230.921 23.0133 231.173 21.7765 231.173 20.1818C231.173 19.1212 231.058 18.2159 230.827 17.4659C230.599 16.7121 230.272 16.1364 229.844 15.7386C229.42 15.3409 228.91 15.142 228.315 15.142C227.425 15.142 226.726 15.5852 226.219 16.4716C225.711 17.3542 225.457 18.5909 225.457 20.1818C225.457 21.2424 225.571 22.1477 225.798 22.8977C226.029 23.6477 226.357 24.2197 226.781 24.6136C227.209 25.0076 227.721 25.2045 228.315 25.2045ZM234.876 26.0852C234.653 26.0852 234.46 26.0057 234.297 25.8466C234.138 25.6837 234.058 25.4905 234.058 25.267C234.058 25.0398 234.138 24.8466 234.297 24.6875C234.46 24.5284 234.653 24.4489 234.876 24.4489C235.104 24.4489 235.297 24.5284 235.456 24.6875C235.615 24.8466 235.695 25.0398 235.695 25.267C235.695 25.4148 235.657 25.5511 235.581 25.6761C235.509 25.8011 235.411 25.9015 235.286 25.9773C235.164 26.0492 235.028 26.0852 234.876 26.0852ZM241.574 26.1591C240.926 26.1591 240.347 26.0284 239.835 25.767C239.328 25.5019 238.922 25.1383 238.619 24.6761C238.32 24.214 238.161 23.6856 238.142 23.0909H239.17C239.205 23.7083 239.447 24.2159 239.898 24.6136C240.348 25.0076 240.907 25.2045 241.574 25.2045C242.093 25.2045 242.555 25.0814 242.96 24.8352C243.366 24.5852 243.682 24.2443 243.909 23.8125C244.14 23.3769 244.256 22.8864 244.256 22.3409C244.252 21.7727 244.129 21.2727 243.886 20.8409C243.644 20.4053 243.314 20.0644 242.898 19.8182C242.485 19.572 242.021 19.4489 241.506 19.4489C241.116 19.4451 240.733 19.5095 240.358 19.642C239.983 19.7746 239.67 19.9451 239.42 20.1534L238.358 20.017L239.057 14.3636H244.807V15.3182H239.949L239.483 19.2102H239.54C239.797 18.9943 240.11 18.8182 240.477 18.6818C240.848 18.5455 241.241 18.4773 241.653 18.4773C242.339 18.4773 242.955 18.642 243.5 18.9716C244.049 19.3011 244.483 19.7557 244.801 20.3352C245.123 20.911 245.284 21.5739 245.284 22.3239C245.284 23.0587 245.123 23.7159 244.801 24.2955C244.483 24.8712 244.044 25.3258 243.483 25.6591C242.926 25.9924 242.29 26.1591 241.574 26.1591ZM251.315 26.1591C250.497 26.1591 249.798 25.9242 249.219 25.4545C248.643 24.9811 248.2 24.2973 247.889 23.4034C247.582 22.5095 247.429 21.4356 247.429 20.1818C247.429 18.9318 247.582 17.8617 247.889 16.9716C248.2 16.0777 248.645 15.3939 249.224 14.9205C249.808 14.4432 250.505 14.2045 251.315 14.2045C252.126 14.2045 252.821 14.4432 253.401 14.9205C253.984 15.3939 254.429 16.0777 254.736 16.9716C255.046 17.8617 255.202 18.9318 255.202 20.1818C255.202 21.4356 255.046 22.5095 254.736 23.4034C254.429 24.2973 253.986 24.9811 253.406 25.4545C252.83 25.9242 252.134 26.1591 251.315 26.1591ZM251.315 25.2045C252.213 25.2045 252.914 24.767 253.418 23.892C253.921 23.0133 254.173 21.7765 254.173 20.1818C254.173 19.1212 254.058 18.2159 253.827 17.4659C253.599 16.7121 253.272 16.1364 252.844 15.7386C252.42 15.3409 251.91 15.142 251.315 15.142C250.425 15.142 249.726 15.5852 249.219 16.4716C248.711 17.3542 248.457 18.5909 248.457 20.1818C248.457 21.2424 248.571 22.1477 248.798 22.8977C249.029 23.6477 249.357 24.2197 249.781 24.6136C250.209 25.0076 250.721 25.2045 251.315 25.2045Z" fill="black"/>
    <defs>
        <linearGradient id="paint0_linear_0_1" x1="83.5" y1="0" x2="83.5" y2="40" gradientUnits="userSpaceOnUse">
            <stop stop-color="#0DFB33"/>
            <stop offset="0.834041" stop-color="#1F9532"/>
        </linearGradient>
    </defs>
</svg>
